<svg xmlns="http://www.w3.org/2000/svg" height="512pt" viewBox="-42 0 511 512" width="512pt"><path d="m421.378906 277.191406c-.101562-.101562-55.25-55.339844-56.582031-56.371094-6.496094-5.019531-15.78125-5.222656-22.496094-.214843-22.726562 16.949219-24.847656 17.730469-26.300781 20.578125v.003906c-1.535156 2.996094-.457031 5.675781-.933594 11.941406-7.675781-3.03125-15.621094-5.34375-23.738281-6.902344-9.675781-1.867187-19.515625-2.660156-29.347656-2.375-2.261719-24.46875-12.429688-47.628906-29.074219-65.910156-14.992188-16.46875-34.398438-28.09375-55.695312-33.5625l15.679687-16.101562c42.992187 14.984375 75.773437 51.3125 86.082031 95.804687.804688 3.464844 3.890625 5.808594 7.300782 5.808594.5625 0 1.128906-.0625 1.699218-.195313 4.035156-.933593 6.546875-4.964843 5.613282-9-10.945313-47.234374-44.652344-86.195312-89.269532-104.148437.34375-.355469 6.679688-6.859375 6.285156-6.453125 1.609376-1.652344 2.382813-3.976562 2.042969-6.308594l-4.507812-30.964844c-1.355469-9.285156-9.453125-16.289062-18.839844-16.289062-86.078125.210938-82.664063-.777344-87.984375 1.476562-6.011719 2.523438-10.554688 8.066407-11.539062 14.8125v.003907c-6.453126 44.300781-6.355469 30.992187 3.816406 43.722656-9.988282 4.011719-19.519532 9.113281-28.441406 15.226563-3.414063 2.339843-4.289063 7.007812-1.945313 10.425781 1.453125 2.121093 3.804687 3.261719 6.191406 3.261719 1.460938 0 2.941407-.425782 4.234375-1.3125 9.738282-6.675782 20.277344-12 31.386719-15.871094l15.671875 16.089844c-49.476562 12.65625-85.238281 57.632812-85.238281 109.960937 0 34.242187 15.226562 66.300781 41.769531 87.945313 62.347656 50.847656 156.070312 22.25 180.027344-53.882813 6.894531-.660156 13.8125-.523437 20.671875.410156-13.976563 52.449219-58.367188 90.023438-109.304688 97.546875-81.117187 11.988282-153.113281-51.046875-153.113281-132.019531 0-33.820313 12.671875-66.082031 35.683594-90.832031 2.820312-3.03125 2.644531-7.777344-.386719-10.601563-3.035156-2.820312-7.78125-2.644531-10.601563.386719-25.597656 27.539062-39.695312 63.421875-39.695312 101.046875 0 88.101563 76.226562 156.347656 163.230469 147.777344 4.457031 18.929687 14.019531 36.089843 27.914062 49.980469 19.820313 19.816406 46.171875 30.734374 74.195313 30.734374h.003906c28.023438 0 54.375-10.917968 74.1875-30.734374 17.597656-17.601563 28.390625-40.9375 30.386719-65.710938 1.601562-19.910156-2.511719-39.808594-11.683594-57.277344l15.6875-.207031c20.351563 45.023437 10.832031 98.019531-24.378906 133.226563-22.488281 22.496093-52.394531 34.882812-84.203125 34.882812-31.8125 0-61.722656-12.390625-84.214844-34.882812-11.632812-11.640626-20.566406-25.226563-26.5625-40.386719-1.519531-3.851563-5.878906-5.734375-9.730469-4.214844-3.851562 1.523437-5.738281 5.878906-4.21875 9.730469 6.753907 17.074218 16.8125 32.375 29.902344 45.476562 25.328125 25.328125 59.003906 39.277344 94.824219 39.277344 35.820312 0 69.488281-13.949219 94.8125-39.277344 38.097656-38.09375 49.480468-94.695312 29.960937-144.046875 7.09375-.296875 9.308594.417969 11.941407-.929687h.003906c3.375-1.726563 3.585937-4.414063 20.578125-26.300782 5.472656-7.347656 4.71875-17.773437-1.757813-24.253906zm-67.03125 36.960938 18.199219-9.082032 8.730469 8.726563zm7.015625-20.265625-22.972656 11.464843 11.464844-22.972656zm-31.773437-4.488281.351562-26.933594 8.730469 8.726562zm29.085937-19.417969c16.5625-14.917969 16.414063-14.996094 18.085938-16.191407l13.191406 13.191407c-1.199219 1.671875-1.382813 1.640625-16.191406 18.085937zm7.398438-26.878907c-.402344.335938-.808594.6875-1.21875 1.0625h-.003907l-16.796874 15.199219-13.941407-13.941406 17.152344-12.789063c1.417969-1.058593 3.429687-.910156 4.679687.339844zm-255.617188-130.738281h13.789063l7.203125 21.554688zm56.003907 21.554688 7.199218-21.554688h13.789063zm-17.507813 5.058593-8.890625-26.609374h17.78125zm44.339844-63.992187 3.261719 22.378906h-21.160157c-1.277343-25.1875-1.167969-24.105469-1.339843-25.832031h15.242187c1.992187 0 3.707031 1.484375 3.996094 3.453125zm-34.375-3.453125c.425781 2.355469.265625 3.265625 1.457031 25.832031h-22.839844c1.234375-23.390625 1.035156-23.507812 1.457032-25.832031zm-50.308594 0h15.246094c-.171875 1.722656-.074219.832031-1.339844 25.832031h-21.160156l3.261719-22.378906c.285156-1.96875 2.003906-3.453125 3.992187-3.453125zm-58.160156 182.796875c0-48.660156 35.621093-89.992187 83.335937-97.34375 3.101563 1.921875 6.71875 2.976563 10.398438 2.976563h9.542968c3.679688 0 7.296876-1.054688 10.394532-2.976563 22.117187 3.421875 42.511718 14.378906 57.695312 31.054687 14.417969 15.835938 23.234375 35.894532 25.214844 57.082032-28.671875 4.054687-55.4375 17.371094-76.015625 37.957031-18.980469 18.992187-31.582031 42.617187-36.714844 68.6875-17.257812-2.589844-33.6875-9.765625-47.601562-21.113281-23.035157-18.789063-36.25-46.605469-36.25-76.324219zm130.777343 93.089844c4.445313-12.378907 11.585938-23.652344 21.023438-33.09375 10.710938-10.695313 23.621094-18.378907 37.84375-22.601563-10.703125 25.96875-32.351562 46.445313-58.867188 55.695313zm69.273438-73.3125c-.125.015625-.25.035156-.371094.054687-22.261718 3.359375-42.480468 13.574219-58.484375 29.554688-13.339843 13.339844-22.746093 29.832031-27.398437 47.945312-.203125.03125-.40625.0625-.609375.09375-4.695313.699219-9.464844 1.0625-14.246094 1.085938 4.777344-22.421875 15.820313-42.738282 32.234375-59.15625 19.785156-19.796875 46.011719-32.023438 73.863281-34.433594.054688-.003906.109375-.011719.160157-.015625 10.980468-.941406 22.027343-.363281 32.84375 1.71875 9.085937 1.75 17.929687 4.558594 26.359374 8.367187l-.207031 15.675782c-8.167969-4.296875-16.863281-7.480469-25.980469-9.496094-12.589843-2.800781-25.433593-3.269531-38.164062-1.394531zm78.925781 167.371093c-16.984375 16.988282-39.5625 26.34375-63.582031 26.34375h-.003906c-24.019532 0-46.601563-9.355468-63.589844-26.34375-11.613281-11.605468-19.691406-25.875-23.628906-41.613281 55.261718-11.234375 99.652344-53.261719 113.953125-107.828125 7.714843 2.386719 15.03125 5.792969 21.84375 10.175782l-.015625 1.175781c-.117188 8.636719 4.410156 13.074219 12.109375 20.328125 3.5625 3.558594 8.554687 5.683594 13.839843 5.625l1.179688-.019532c22.851562 35.445313 18.027344 82.027344-12.105469 112.15625zm81.683594-149-12.789063 17.152344-13.9375-13.941406c16.152344-17.871094 15.355469-16.941406 16.257813-18.019531l10.128906 10.128906c1.25 1.25 1.394531 3.261719.339844 4.679687zm0 0"></path><path d="m224 52.925781c1.917969 0 3.839844-.734375 5.304688-2.199219l19.375-19.375c2.929687-2.929687 2.929687-7.679687 0-10.609374-2.929688-2.925782-7.675782-2.925782-10.605469 0l-19.378907 19.378906c-2.929687 2.929687-2.929687 7.675781 0 10.605468 1.464844 1.464844 3.382813 2.199219 5.304688 2.199219zm0 0"></path><path d="m231.269531 74.03125c0 4.144531 3.355469 7.5 7.5 7.5h23.152344c4.144531 0 7.5-3.355469 7.5-7.5 0-4.140625-3.355469-7.5-7.5-7.5h-23.152344c-4.144531 0-7.5 3.359375-7.5 7.5zm0 0"></path><path d="m195.386719 38.152344c4.144531 0 7.5-3.355469 7.5-7.5v-23.152344c0-4.144531-3.355469-7.5-7.5-7.5-4.140625 0-7.5 3.355469-7.5 7.5v23.152344c0 4.144531 3.359375 7.5 7.5 7.5zm0 0"></path></svg>