<svg xmlns="http://www.w3.org/2000/svg" xmlns:xlink="http://www.w3.org/1999/xlink" id="Capa_1" x="0px" y="0px" viewBox="-217 309.8 175.2 175.2" style="enable-background:new -217 309.8 175.2 175.2;" xml:space="preserve">
<style type="text/css">
	.st0{enable-background:new    ;}
</style>
<g>
	<path d="M-133.6,361.9c12.3,0.8,30.2-1,44.4-6.7l1.5,3.9c-12.5,7-32.3,12.5-41.8,13C-140.9,372.8-146,361.1-133.6,361.9z"></path>
	<path d="M-100,356c-8.2,10.7-22.5,24.3-37.4,32l2.2,4c14.8-5.3,33.6-17.8,40.8-25.3C-85.7,357.8-91.7,345.2-100,356z"></path>
	<rect x="-145.8" y="353.1" transform="matrix(0.9546 -0.298 0.298 0.9546 -114.0406 -25.3045)" width="11.6" height="16.4"></rect>
	<path d="M-132.3,399l-10.2-19.4l-2.6-15.1c3.8-0.5,7.5-1.7,11.1-3.5c3,0.5,7.6,6.5,8.7,12.3l4.4,22.1L-132.3,399z"></path>
	<ellipse transform="matrix(-0.9546 0.298 -0.298 -0.9546 -230.4414 700.4911)" cx="-168.6" cy="332.7" rx="15.5" ry="15.4"></ellipse>
	<ellipse transform="matrix(-0.9546 0.298 -0.298 -0.9546 -194.0808 711.2625)" cx="-151.3" cy="340.8" rx="15.5" ry="15.4"></ellipse>
	<ellipse transform="matrix(-0.9546 0.298 -0.298 -0.9546 -181.8538 715.4504)" cx="-145.5" cy="343.9" rx="20.2" ry="19.6"></ellipse>
	<path d="M-124.4,394c24.9,0,45.4,30.7,47.1,69.6c-12.9,10.2-29.3,16.3-47.1,16.3s-34.1-6.1-47.1-16.3   C-169.8,424.7-149.4,394-124.4,394z"></path>
	<path d="M-142.6,379.6c1.4-0.4,8.7-12.3,15.2-11.9c1,1.8,1.7,3.7,2.1,5.7l4.4,21.8l0,0.2l-11.4,3.6L-142.6,379.6z"></path>
	<path d="M-120.5,485c4.6,0,8.4-1.9,8.4-4.2s-3.8-4.2-8.4-4.2s-8.4,1.9-8.4,4.2C-128.9,483.1-125.1,485-120.5,485z"></path>
	<path d="M-135.2,326.8c-6.5,20.3-16.6,21-16.2,35.9c-6.2-1.8-11.3-6.4-13.3-12.8c-3.2-10.3,2.8-21.4,13.5-24.7   C-145.7,323.4-139.9,324.2-135.2,326.8z"></path>
	<ellipse transform="matrix(-0.8627 0.5058 -0.5058 -0.8627 -101.6863 725.2507)" cx="-149.3" cy="348.8" rx="3.7" ry="5.8"></ellipse>
	<path class="st0" d="M-172.4,317.1c-2.2,26.7,12.4,58.5,31.8,79.6c-0.2,0.1-0.3,0.2-0.5,0.2c-16.4,7-33.8,7.8-49.7,3.6   C-200,376-204.9,329.6-172.4,317.1z"></path>
	<ellipse transform="matrix(-0.9546 0.298 -0.298 -0.9546 -155.5302 702.6778)" cx="-131.3" cy="339.5" rx="1.4" ry="2.5"></ellipse>
	<path d="M-125.5,345.9c-3,0.9-6,1.7-8.1,2c2.2,1.4,4.7,1.9,7.2,1.8C-125.9,348.4-125.6,347.2-125.5,345.9z"></path>
	<rect x="-98.9" y="349.3" transform="matrix(0.9297 -0.3683 0.3683 0.9297 -136.2698 -9.6851)" width="10.7" height="5.7"></rect>
	<g>
		<path d="M-76.2,479.6l-2.6-55.1l0-12.9l0-4.3H-64c-1.1,24.1-2.2,48.2-3.2,72.3C-70.2,479.6-73.2,479.6-76.2,479.6z"></path>
		<polygon points="-78.8,407.3 -78.6,407.3 -78.8,411.6 -78.8,411.6   "></polygon>
	</g>
	<polygon points="-86.4,411.4 -63.3,402.3 -61.2,406.8 -84.5,416.1  "></polygon>
	<polygon points="-61.9,405.3 -88.7,349.6 -95.6,354.2 -95.2,387.1 -85.2,414.4  "></polygon>
	<path d="M-98.1,352.2c6,18.4,9.8,26.9,4.3,36.4l-3.1-7.7l-0.7-22.3l-1.9-7.2L-98.1,352.2z"></path>
	<path d="M-99.2,350.1l4.7,11.6l0.2,2l1.4,19.1l-0.4,10.7l-4.1-13.1l-0.2-21.8l-1.8-6.2c-0.3-0.9-2.3-4.2-2.3-4.2L-99.2,350.1z"></path>
	<path d="M-96,357.1c-8.2,10.7-22.5,24.3-37.4,32l2.2,4c14.8-5.3,33.6-17.8,40.8-25.3C-81.7,358.9-87.7,346.3-96,357.1z"></path>
	<path d="M-134.6,386.5c-1.5,0.7-1.7,1.6-0.8,2.5c-2.4,0.7-3.6,3.1-3,4.3c1,2.3,4.4,3.1,7.6,1.7c3.2-1.4,4.9-4.4,3.9-6.8   S-131.4,385.1-134.6,386.5z"></path>
	<path d="M-76.4,485c5.1,0,9.2-2.1,9.2-4.6s-4.1-4.6-9.2-4.6c-5.1,0-9.2,2.1-9.2,4.6C-85.6,482.9-81.5,485-76.4,485z"></path>
	<path d="M-135.8,367c12.3,0.8,30.2-1,44.4-6.7l1.5,3.9c-12.5,7-32.3,12.5-41.8,13C-143.1,377.9-148.2,366.2-135.8,367z"></path>
	<path d="M-92.4,358c1.4-0.7,2.1-0.2,2.2,0.9c1.9-1.2,4.3-0.6,4.8,0.5c1,2.1-0.5,4.9-3.4,6.3c-2.9,1.3-6,0.7-7-1.4   C-96.8,362.1-95.3,359.3-92.4,358z"></path>
	<g>
		<path d="M-87.4,322.9c-17.5-4.5-41.8,17.3-48.2-3.2c8.6,3.5,9.7,0.3,18.1-3.9C-109,311.6-96.5,310.9-87.4,322.9z"></path>
		<path d="M-86.4,323.5c-16.5-7.4-44.1,10.1-47-11.2c7.9,4.9,9.5,1.9,18.5-0.8C-105.9,308.8-93.4,310.2-86.4,323.5z"></path>
		<g>
			<ellipse transform="matrix(-0.9479 0.3187 -0.3187 -0.9479 -95.4744 678.323)" cx="-103.2" cy="331.4" rx="22.2" ry="21.4"></ellipse>
			<path d="M-123.3,322.8c10,12.3,37.8,9,37.5,21.5c4.4-5.5,6-13,3.6-20c-3.8-11.2-16.2-17.2-27.8-13.3     C-116.2,313.1-120.8,317.5-123.3,322.8z"></path>
			
				<ellipse transform="matrix(-0.9953 9.650317e-002 -9.650317e-002 -0.9953 -160.6327 674.35)" cx="-96.6" cy="333.3" rx="4" ry="6.3"></ellipse>
			<ellipse transform="matrix(-0.9479 0.3187 -0.3187 -0.9479 -123.7583 693.3641)" cx="-118.6" cy="336.6" rx="1.5" ry="2.7"></ellipse>
			<path d="M-119.7,346c3.3-1.1,6.4-2.4,8.4-3.4c-1,2.6-3,4.8-5.3,6.2C-117.7,348-118.7,347.1-119.7,346z"></path>
		</g>
		<path d="M-125.4,328.6c5-0.2,9.8,0.1,16.3,2.4c7.1,2.5,12.8-22.1,3.6-21.2C-114.7,310.8-125,313.8-125.4,328.6z"></path>
	</g>
</g>
</svg>