<svg xmlns="http://www.w3.org/2000/svg" xmlns:xlink="http://www.w3.org/1999/xlink" id="Capa_1" x="0px" y="0px" viewBox="0 0 175.166 175.166" style="enable-background:new 0 0 175.166 175.166;" xml:space="preserve">
<g>
	<g>
		<path style="fill-rule:evenodd;clip-rule:evenodd;fill:#C79369;" d="M83.368,52.033c12.266,0.753,30.202-1.026,44.41-6.68    l1.468,3.928c-12.536,7.036-32.303,12.526-41.801,13.044C76.101,62.944,70.994,51.274,83.368,52.033z"></path>
		<path style="fill-rule:evenodd;clip-rule:evenodd;fill:#080808;" d="M117.049,46.181c-8.186,10.704-22.544,24.286-37.435,31.997    l2.201,4.038c14.833-5.334,33.581-17.768,40.831-25.265C131.308,47.997,125.306,35.383,117.049,46.181z"></path>
		
			<rect x="71.177" y="43.315" transform="matrix(-0.9546 0.298 -0.298 -0.9546 165.8434 77.7593)" style="fill-rule:evenodd;clip-rule:evenodd;fill:#C79369;" width="11.633" height="16.416"></rect>
		<path style="fill-rule:evenodd;clip-rule:evenodd;fill:#E7B791;" d="M84.67,89.178L74.434,69.78l-2.551-15.109    c3.821-0.537,7.518-1.712,11.104-3.467c2.985,0.515,7.631,6.479,8.683,12.345l4.419,22.065L84.67,89.178z"></path>
		
			<ellipse transform="matrix(-0.298 -0.9546 0.9546 -0.298 40.9899 75.8369)" style="fill-rule:evenodd;clip-rule:evenodd;fill:#5E3A1D;" cx="48.38" cy="22.846" rx="15.362" ry="15.518"></ellipse>
		
			<ellipse transform="matrix(-0.298 -0.9546 0.9546 -0.298 55.7332 102.9956)" style="fill-rule:evenodd;clip-rule:evenodd;fill:#F5F0F0;" cx="65.738" cy="31.005" rx="15.362" ry="15.518"></ellipse>
		
			<ellipse transform="matrix(-0.298 -0.9546 0.9546 -0.298 60.3648 112.4556)" style="fill-rule:evenodd;clip-rule:evenodd;fill:#E7B791;" cx="71.533" cy="34.032" rx="19.555" ry="20.203"></ellipse>
		<path style="fill-rule:evenodd;clip-rule:evenodd;fill:#F5F0F0;" d="M92.587,84.196c24.945,0,45.366,30.695,47.061,69.56    c-12.914,10.176-29.268,16.261-47.061,16.261c-17.793,0-34.147-6.085-47.061-16.261C47.221,114.891,67.642,84.196,92.587,84.196z"></path>
		<path style="fill-rule:evenodd;clip-rule:evenodd;fill:#F5F0F0;" d="M74.435,69.78c1.374-0.403,8.672-12.305,15.173-11.938    c0.958,1.775,1.711,3.746,2.063,5.706l4.374,21.841l0.045,0.223L84.67,89.178L74.435,69.78z"></path>
		<path style="fill-rule:evenodd;clip-rule:evenodd;fill:#F5F0F0;" d="M96.489,175.166c4.619,0,8.387-1.892,8.387-4.212    c0-2.32-3.768-4.212-8.387-4.212c-4.619,0-8.387,1.893-8.387,4.212C88.102,173.274,91.87,175.166,96.489,175.166z"></path>
		<path style="fill-rule:evenodd;clip-rule:evenodd;fill:#5E3A1D;" d="M81.754,16.95C75.243,37.251,65.169,37.955,65.59,52.878    c-6.18-1.751-11.329-6.38-13.342-12.825c-3.218-10.309,2.806-21.362,13.457-24.687C71.309,13.616,77.077,14.355,81.754,16.95z"></path>
		
			<ellipse transform="matrix(-0.5058 -0.8627 0.8627 -0.5058 68.2926 117.1016)" style="fill-rule:evenodd;clip-rule:evenodd;fill:#E7B791;" cx="67.689" cy="38.989" rx="5.761" ry="3.687"></ellipse>
		<path style="opacity:0.5;fill-rule:evenodd;clip-rule:evenodd;fill:#F5F0F0;" d="M44.589,7.252    c-2.156,26.675,12.36,58.534,31.838,79.595c-0.172,0.075-0.344,0.15-0.517,0.225c-16.357,7.002-33.786,7.845-49.663,3.571    C16.995,66.131,12.083,19.795,44.589,7.252z"></path>
		
			<ellipse transform="matrix(-0.298 -0.9546 0.9546 -0.298 82.8945 120.2668)" style="fill-rule:evenodd;clip-rule:evenodd;fill:#323232;" cx="85.671" cy="29.652" rx="2.467" ry="1.41"></ellipse>
		<path style="fill-rule:evenodd;clip-rule:evenodd;fill:#C79369;" d="M91.53,36.074c-3.01,0.905-6.035,1.657-8.072,1.963    c2.155,1.394,4.727,1.938,7.217,1.76C91.081,38.59,91.368,37.344,91.53,36.074z"></path>
		
			<rect x="118.145" y="39.488" transform="matrix(-0.9297 0.3683 -0.3683 -0.9297 253.8889 36.1714)" style="fill-rule:evenodd;clip-rule:evenodd;fill:#F5F0F0;" width="10.696" height="5.654"></rect>
		<g>
			<path style="fill-rule:evenodd;clip-rule:evenodd;fill:#323232;" d="M140.813,169.765l-2.566-55.118l-0.019-12.87l-0.013-4.289     h14.801c-1.082,24.092-2.165,48.185-3.248,72.277C146.784,169.765,143.798,169.765,140.813,169.765z"></path>
			<polygon style="fill-rule:evenodd;clip-rule:evenodd;fill:#323232;" points="138.215,97.488 138.421,97.488 138.228,101.779      138.228,101.777    "></polygon>
		</g>
		<polygon style="fill-rule:evenodd;clip-rule:evenodd;fill:#1A1A1A;" points="130.636,101.6 153.683,92.469 155.831,97.01     132.498,106.255   "></polygon>
		<polygon style="fill-rule:evenodd;clip-rule:evenodd;fill:#323232;" points="155.12,95.499 128.257,39.719 121.406,44.355     121.753,77.253 131.816,104.608   "></polygon>
		<path style="fill-rule:evenodd;clip-rule:evenodd;fill:#F5F0F0;" d="M118.91,42.372c5.954,18.438,9.8,26.935,4.266,36.437    l-3.074-7.69l-0.729-22.254l-1.895-7.208L118.91,42.372z"></path>
		<path style="fill-rule:evenodd;clip-rule:evenodd;fill:#323232;" d="M117.808,40.284l4.668,11.578l0.192,2.019l1.442,19.132    l-0.434,10.716l-4.086-13.054l-0.219-21.81l-1.802-6.18c-0.274-0.939-2.256-4.192-2.256-4.192L117.808,40.284z"></path>
		<path style="fill-rule:evenodd;clip-rule:evenodd;fill:#1A1A1A;" d="M121.021,47.238c-8.186,10.704-22.543,24.286-37.433,31.999    l2.2,4.038c14.833-5.334,33.58-17.768,40.832-25.265C135.281,49.054,129.279,36.441,121.021,47.238z"></path>
		<path style="fill-rule:evenodd;clip-rule:evenodd;fill:#E7B791;" d="M82.433,76.701c-1.542,0.681-1.671,1.625-0.838,2.479    c-2.395,0.71-3.565,3.083-3.036,4.282c1.031,2.334,4.436,3.09,7.606,1.69c3.17-1.4,4.906-4.427,3.875-6.761    C89.009,76.057,85.604,75.301,82.433,76.701z"></path>
		<path style="fill-rule:evenodd;clip-rule:evenodd;fill:#1A1A1A;" d="M140.573,175.166c5.066,0,9.197-2.075,9.197-4.619    c0-2.544-4.131-4.619-9.197-4.619c-5.065,0-9.197,2.075-9.197,4.619C131.376,173.091,135.507,175.166,140.573,175.166z"></path>
		<path style="fill-rule:evenodd;clip-rule:evenodd;fill:#E7B791;" d="M81.215,57.145c12.266,0.753,30.202-1.027,44.411-6.681    l1.468,3.928c-12.536,7.036-32.303,12.526-41.8,13.044C73.949,68.056,68.843,56.385,81.215,57.145z"></path>
		<path style="fill-rule:evenodd;clip-rule:evenodd;fill:#E7B791;" d="M124.568,48.154c1.391-0.655,2.119-0.18,2.21,0.903    c1.919-1.226,4.254-0.615,4.764,0.466c0.992,2.104-0.52,4.903-3.379,6.251c-2.859,1.348-5.98,0.736-6.973-1.369    C120.196,52.301,121.709,49.503,124.568,48.154z"></path>
		<g>
			<path style="fill-rule:evenodd;clip-rule:evenodd;fill:#5E3A1D;" d="M129.63,13.051c-17.502-4.509-41.847,17.277-48.222-3.18     c8.648,3.536,9.704,0.309,18.104-3.868C107.985,1.789,120.514,1.096,129.63,13.051z"></path>
			<path style="fill-rule:evenodd;clip-rule:evenodd;fill:#5E3A1D;" d="M130.604,13.66C114.098,6.302,86.466,23.733,83.584,2.5     c7.94,4.925,9.517,1.919,18.496-0.802C111.135-1.047,123.605,0.354,130.604,13.66z"></path>
			<g>
				
					<ellipse transform="matrix(-0.3187 -0.9479 0.9479 -0.3187 129.6312 136.2199)" style="fill-rule:evenodd;clip-rule:evenodd;fill:#E7B791;" cx="113.771" cy="21.522" rx="21.443" ry="22.153"></ellipse>
				<path style="fill-rule:evenodd;clip-rule:evenodd;fill:#5E3A1D;" d="M93.705,12.93c9.99,12.3,37.818,8.966,37.468,21.505      c4.361-5.531,5.956-12.955,3.596-19.973c-3.774-11.225-16.235-17.164-27.832-13.264C100.834,3.249,96.189,7.617,93.705,12.93z"></path>
				
					<ellipse transform="matrix(-0.0965 -0.9953 0.9953 -0.0965 108.6506 145.5269)" style="fill-rule:evenodd;clip-rule:evenodd;fill:#E7B791;" cx="120.373" cy="23.452" rx="6.317" ry="4.043"></ellipse>
				
					<ellipse transform="matrix(-0.3187 -0.9479 0.9479 -0.3187 104.4237 128.5141)" style="fill-rule:evenodd;clip-rule:evenodd;fill:#323232;" cx="98.398" cy="26.729" rx="2.706" ry="1.546"></ellipse>
				<path style="fill-rule:evenodd;clip-rule:evenodd;fill:#C79369;" d="M97.327,36.202c3.254-1.133,6.426-2.411,8.432-3.45      c-1.018,2.624-2.951,4.761-5.277,6.207C99.346,38.147,98.288,37.225,97.327,36.202z"></path>
			</g>
			<path style="fill-rule:evenodd;clip-rule:evenodd;fill:#5E3A1D;" d="M91.644,18.796c5.003-0.176,9.809,0.105,16.257,2.422     c7.086,2.547,12.762-22.129,3.575-21.189C102.29,0.968,92.008,3.973,91.644,18.796z"></path>
		</g>
	</g>
</g>
<g>
</g>
<g>
</g>
<g>
</g>
<g>
</g>
<g>
</g>
<g>
</g>
<g>
</g>
<g>
</g>
<g>
</g>
<g>
</g>
<g>
</g>
<g>
</g>
<g>
</g>
<g>
</g>
<g>
</g>
</svg>